<svg width="156" height="149" viewBox="0 0 156 149" fill="none" xmlns="http://www.w3.org/2000/svg">
<path d="M146.59 88.8113H10V13.1919C10 8.63836 13.6913 4.94702 18.2449 4.94702H138.346C142.899 4.94702 146.591 8.63836 146.591 13.1919V88.8113H146.59Z" fill="#F9F9F9"/>
<path d="M138.346 4.94702H127.353C131.906 4.94702 135.597 8.63836 135.597 13.1919V88.8113H146.591V13.1919C146.591 8.63836 142.899 4.94702 138.346 4.94702V4.94702Z" fill="#EDEDED"/>
<path d="M117.201 9.89384H39.3904C36.6583 9.89384 34.4434 7.67893 34.4434 4.94678C34.4436 2.21491 36.6585 0 39.3904 0H117.2C119.932 0 122.147 2.21491 122.147 4.94705C122.147 7.6792 119.932 9.89384 117.201 9.89384Z" fill="#C4C4C4"/>
<path d="M117.2 0H106.207C108.939 0 111.154 2.21491 111.154 4.94705C111.154 7.6792 108.939 9.89411 106.207 9.89411H117.2C119.932 9.89411 122.147 7.6792 122.147 4.94705C122.147 2.21491 119.932 0 117.2 0V0Z" fill="#A6A6A6"/>
<path d="M138.346 101H18.2449C13.6913 101 10 97.3087 10 92.7551V88.8114H146.59V92.7551C146.59 97.3087 142.899 101 138.346 101V101Z" fill="#C4C4C4"/>
<path d="M135.597 88.8114V92.7551C135.597 97.3087 131.906 101 127.353 101H138.346C142.899 101 146.591 97.3087 146.591 92.7551V88.8114H135.597Z" fill="#A6A6A6"/>
<path d="M120.606 76.9065H35.9877C34.4698 76.9065 33.2393 75.676 33.2393 74.1581V24.5056C33.2393 22.9877 34.4698 21.7572 35.9877 21.7572H120.606C122.124 21.7572 123.355 22.9877 123.355 24.5056V74.1581C123.354 75.6762 122.124 76.9065 120.606 76.9065Z" fill="#ECECEC"/>
<path d="M90.2686 62.0462L104.285 48.7738L123.354 66.8294V74.1585C123.354 75.6763 122.123 76.9068 120.605 76.9068H90.2686V62.0462Z" fill="#B2B2B2"/>
<path d="M33.2383 66.9307L64.3326 37.4875L105.916 76.863H35.9867C34.4688 76.863 33.2383 75.6325 33.2383 74.1146V66.9307Z" fill="#CCCCCC"/>
<path d="M22.7982 56.4645C22.1049 56.4645 21.4282 56.1149 21.0391 55.481C18.7296 51.7163 18.7765 46.8764 21.1579 43.1507C21.771 42.1915 23.0454 41.9107 24.0049 42.5241C24.9641 43.1372 25.2446 44.4119 24.6315 45.371C23.1183 47.7381 23.0869 50.9347 24.5533 53.3251C25.1485 54.2957 24.8444 55.5647 23.8741 56.1599C23.5378 56.3662 23.1657 56.4645 22.7982 56.4645V56.4645Z" fill="#B2B2B2"/>
<path d="M133.751 56.4647C133.371 56.4647 132.987 56.3596 132.643 56.14C131.684 55.5269 131.403 54.2522 132.016 53.2933C133.529 50.9259 133.561 47.7293 132.094 45.3389C131.499 44.3684 131.803 43.0994 132.774 42.5042C133.744 41.9089 135.013 42.2133 135.608 43.1833C137.918 46.9478 137.871 51.7879 135.489 55.5133C135.096 56.1286 134.431 56.4647 133.751 56.4647V56.4647Z" fill="#B2B2B2"/>
<path d="M89.9937 45.9568C94.5914 45.9568 98.3185 42.2297 98.3185 37.632C98.3185 33.0344 94.5914 29.3073 89.9937 29.3073C85.3961 29.3073 81.6689 33.0344 81.6689 37.632C81.6689 42.2297 85.3961 45.9568 89.9937 45.9568Z" fill="white"/>
<path d="M5.19305 135.5C5.72305 135.5 6.21305 135.645 6.66305 135.935C7.11305 136.215 7.46805 136.6 7.72805 137.09C7.99805 137.58 8.13305 138.12 8.13305 138.71C8.13305 139.3 7.99805 139.845 7.72805 140.345C7.46805 140.845 7.11305 141.24 6.66305 141.53C6.21305 141.82 5.72305 141.965 5.19305 141.965H2.37305V145.28C2.37305 145.48 2.30805 145.65 2.17805 145.79C2.04805 145.93 1.88305 146 1.68305 146C1.47305 146 1.30305 145.935 1.17305 145.805C1.05305 145.665 0.993047 145.49 0.993047 145.28V136.22C0.993047 136.02 1.06305 135.85 1.20305 135.71C1.34305 135.57 1.51305 135.5 1.71305 135.5H5.19305ZM5.19305 140.6C5.46305 140.6 5.71305 140.515 5.94305 140.345C6.17305 140.165 6.35305 139.93 6.48305 139.64C6.62305 139.35 6.69305 139.04 6.69305 138.71C6.69305 138.2 6.54305 137.77 6.24305 137.42C5.95305 137.06 5.60305 136.88 5.19305 136.88H2.37305V140.6H5.19305ZM13.7222 137.96C13.9822 137.96 14.2072 138.03 14.3972 138.17C14.5872 138.3 14.6822 138.465 14.6822 138.665C14.6822 138.905 14.6172 139.09 14.4872 139.22C14.3672 139.34 14.2172 139.4 14.0372 139.4C13.9472 139.4 13.8122 139.37 13.6322 139.31C13.4222 139.24 13.2572 139.205 13.1372 139.205C12.8272 139.205 12.5222 139.315 12.2222 139.535C11.9322 139.745 11.6922 140.04 11.5022 140.42C11.3222 140.79 11.2322 141.205 11.2322 141.665V145.28C11.2322 145.48 11.1622 145.65 11.0222 145.79C10.8922 145.93 10.7222 146 10.5122 146C10.3022 146 10.1322 145.935 10.0022 145.805C9.87219 145.665 9.80719 145.49 9.80719 145.28V138.86C9.80719 138.66 9.87219 138.49 10.0022 138.35C10.1422 138.21 10.3122 138.14 10.5122 138.14C10.7222 138.14 10.8922 138.21 11.0222 138.35C11.1622 138.49 11.2322 138.66 11.2322 138.86V139.625C11.4522 139.135 11.7822 138.74 12.2222 138.44C12.6622 138.13 13.1622 137.97 13.7222 137.96ZM23.1066 142.07C23.1066 142.85 22.9316 143.55 22.5816 144.17C22.2316 144.79 21.7516 145.275 21.1416 145.625C20.5416 145.975 19.8766 146.15 19.1466 146.15C18.4166 146.15 17.7466 145.975 17.1366 145.625C16.5366 145.275 16.0616 144.79 15.7116 144.17C15.3616 143.55 15.1866 142.85 15.1866 142.07C15.1866 141.29 15.3616 140.585 15.7116 139.955C16.0616 139.325 16.5366 138.835 17.1366 138.485C17.7466 138.135 18.4166 137.96 19.1466 137.96C19.8766 137.96 20.5416 138.135 21.1416 138.485C21.7516 138.835 22.2316 139.325 22.5816 139.955C22.9316 140.585 23.1066 141.29 23.1066 142.07ZM21.6816 142.07C21.6816 141.53 21.5666 141.05 21.3366 140.63C21.1166 140.2 20.8116 139.87 20.4216 139.64C20.0416 139.4 19.6166 139.28 19.1466 139.28C18.6766 139.28 18.2466 139.4 17.8566 139.64C17.4766 139.87 17.1716 140.2 16.9416 140.63C16.7216 141.05 16.6116 141.53 16.6116 142.07C16.6116 142.6 16.7216 143.075 16.9416 143.495C17.1716 143.915 17.4766 144.245 17.8566 144.485C18.2466 144.715 18.6766 144.83 19.1466 144.83C19.6166 144.83 20.0416 144.715 20.4216 144.485C20.8116 144.245 21.1166 143.915 21.3366 143.495C21.5666 143.075 21.6816 142.6 21.6816 142.07ZM31.1382 134.9C31.3482 134.9 31.5182 134.97 31.6482 135.11C31.7882 135.24 31.8582 135.41 31.8582 135.62V145.28C31.8582 145.48 31.7882 145.65 31.6482 145.79C31.5182 145.93 31.3482 146 31.1382 146C30.9282 146 30.7582 145.935 30.6282 145.805C30.4982 145.665 30.4332 145.49 30.4332 145.28V144.86C30.1832 145.22 29.8282 145.525 29.3682 145.775C28.9182 146.025 28.4332 146.15 27.9132 146.15C27.2332 146.15 26.6182 145.975 26.0682 145.625C25.5182 145.275 25.0832 144.79 24.7632 144.17C24.4432 143.54 24.2832 142.835 24.2832 142.055C24.2832 141.275 24.4382 140.575 24.7482 139.955C25.0682 139.325 25.5032 138.835 26.0532 138.485C26.6032 138.135 27.2082 137.96 27.8682 137.96C28.3982 137.96 28.8882 138.07 29.3382 138.29C29.7882 138.51 30.1532 138.795 30.4332 139.145V135.62C30.4332 135.41 30.4982 135.24 30.6282 135.11C30.7582 134.97 30.9282 134.9 31.1382 134.9ZM28.0782 144.83C28.5482 144.83 28.9632 144.71 29.3232 144.47C29.6932 144.23 29.9782 143.9 30.1782 143.48C30.3882 143.06 30.4932 142.585 30.4932 142.055C30.4932 141.535 30.3882 141.065 30.1782 140.645C29.9782 140.215 29.6932 139.88 29.3232 139.64C28.9632 139.4 28.5482 139.28 28.0782 139.28C27.6082 139.28 27.1882 139.4 26.8182 139.64C26.4582 139.88 26.1732 140.215 25.9632 140.645C25.7632 141.065 25.6632 141.535 25.6632 142.055C25.6632 142.585 25.7632 143.06 25.9632 143.48C26.1732 143.9 26.4582 144.23 26.8182 144.47C27.1882 144.71 27.6082 144.83 28.0782 144.83ZM40.0615 138.14C40.2715 138.14 40.4415 138.21 40.5715 138.35C40.7115 138.49 40.7815 138.66 40.7815 138.86V142.85C40.7815 143.89 40.4915 144.7 39.9115 145.28C39.3415 145.85 38.5315 146.135 37.4815 146.135C36.4415 146.135 35.6365 145.85 35.0665 145.28C34.4965 144.7 34.2115 143.89 34.2115 142.85V138.86C34.2115 138.66 34.2765 138.49 34.4065 138.35C34.5465 138.21 34.7165 138.14 34.9165 138.14C35.1265 138.14 35.2965 138.21 35.4265 138.35C35.5665 138.49 35.6365 138.66 35.6365 138.86V142.85C35.6365 144.16 36.2515 144.815 37.4815 144.815C38.0915 144.815 38.5565 144.65 38.8765 144.32C39.1965 143.99 39.3565 143.5 39.3565 142.85V138.86C39.3565 138.66 39.4215 138.49 39.5515 138.35C39.6915 138.21 39.8615 138.14 40.0615 138.14ZM45.0427 139.535V144.005C45.0427 144.505 45.2677 144.755 45.7177 144.755C45.7877 144.755 45.8827 144.74 46.0027 144.71C46.1227 144.67 46.2177 144.65 46.2877 144.65C46.4177 144.65 46.5277 144.705 46.6177 144.815C46.7077 144.925 46.7527 145.065 46.7527 145.235C46.7527 145.445 46.6327 145.625 46.3927 145.775C46.1527 145.925 45.8827 146 45.5827 146C45.2527 146 44.9477 145.965 44.6677 145.895C44.3977 145.825 44.1527 145.65 43.9327 145.37C43.7227 145.08 43.6177 144.645 43.6177 144.065V139.535H42.7477C42.5577 139.535 42.3977 139.475 42.2677 139.355C42.1477 139.225 42.0877 139.065 42.0877 138.875C42.0877 138.685 42.1477 138.53 42.2677 138.41C42.3977 138.29 42.5577 138.23 42.7477 138.23H43.6177V136.97C43.6177 136.77 43.6827 136.6 43.8127 136.46C43.9527 136.32 44.1277 136.25 44.3377 136.25C44.5377 136.25 44.7027 136.32 44.8327 136.46C44.9727 136.6 45.0427 136.77 45.0427 136.97V138.23H46.2877C46.4777 138.23 46.6327 138.295 46.7527 138.425C46.8827 138.545 46.9477 138.7 46.9477 138.89C46.9477 139.08 46.8827 139.235 46.7527 139.355C46.6327 139.475 46.4777 139.535 46.2877 139.535H45.0427ZM55.9777 142.07C55.9777 142.85 55.8027 143.55 55.4527 144.17C55.1027 144.79 54.6227 145.275 54.0127 145.625C53.4127 145.975 52.7477 146.15 52.0177 146.15C51.2877 146.15 50.6177 145.975 50.0077 145.625C49.4077 145.275 48.9327 144.79 48.5827 144.17C48.2327 143.55 48.0577 142.85 48.0577 142.07C48.0577 141.29 48.2327 140.585 48.5827 139.955C48.9327 139.325 49.4077 138.835 50.0077 138.485C50.6177 138.135 51.2877 137.96 52.0177 137.96C52.7477 137.96 53.4127 138.135 54.0127 138.485C54.6227 138.835 55.1027 139.325 55.4527 139.955C55.8027 140.585 55.9777 141.29 55.9777 142.07ZM54.5527 142.07C54.5527 141.53 54.4377 141.05 54.2077 140.63C53.9877 140.2 53.6827 139.87 53.2927 139.64C52.9127 139.4 52.4877 139.28 52.0177 139.28C51.5477 139.28 51.1177 139.4 50.7277 139.64C50.3477 139.87 50.0427 140.2 49.8127 140.63C49.5927 141.05 49.4827 141.53 49.4827 142.07C49.4827 142.6 49.5927 143.075 49.8127 143.495C50.0427 143.915 50.3477 144.245 50.7277 144.485C51.1177 144.715 51.5477 144.83 52.0177 144.83C52.4877 144.83 52.9127 144.715 53.2927 144.485C53.6827 144.245 53.9877 143.915 54.2077 143.495C54.4377 143.075 54.5527 142.6 54.5527 142.07ZM61.3445 144.77C61.2545 144.63 61.2095 144.495 61.2095 144.365C61.2095 144.165 61.3145 143.995 61.5245 143.855C61.6245 143.785 61.7395 143.75 61.8695 143.75C62.0495 143.75 62.2145 143.825 62.3645 143.975C62.6645 144.315 62.9845 144.57 63.3245 144.74C63.6745 144.91 64.0895 144.995 64.5695 144.995C64.9495 144.985 65.2845 144.9 65.5745 144.74C65.8645 144.57 66.0095 144.3 66.0095 143.93C66.0095 143.59 65.8595 143.33 65.5595 143.15C65.2695 142.97 64.8395 142.805 64.2695 142.655C63.7095 142.505 63.2445 142.35 62.8745 142.19C62.5045 142.02 62.1895 141.78 61.9295 141.47C61.6795 141.15 61.5545 140.735 61.5545 140.225C61.5545 139.775 61.6795 139.38 61.9295 139.04C62.1895 138.7 62.5295 138.435 62.9495 138.245C63.3795 138.055 63.8445 137.96 64.3445 137.96C64.8245 137.96 65.2995 138.05 65.7695 138.23C66.2495 138.41 66.6395 138.685 66.9395 139.055C67.0595 139.195 67.1195 139.34 67.1195 139.49C67.1195 139.65 67.0395 139.805 66.8795 139.955C66.7795 140.045 66.6545 140.09 66.5045 140.09C66.3245 140.09 66.1795 140.03 66.0695 139.91C65.8595 139.67 65.5995 139.485 65.2895 139.355C64.9895 139.225 64.6545 139.16 64.2845 139.16C63.9045 139.16 63.5795 139.24 63.3095 139.4C63.0495 139.55 62.9195 139.81 62.9195 140.18C62.9295 140.53 63.0795 140.79 63.3695 140.96C63.6695 141.13 64.1245 141.295 64.7345 141.455C65.2645 141.595 65.7045 141.745 66.0545 141.905C66.4045 142.065 66.6995 142.305 66.9395 142.625C67.1795 142.935 67.2995 143.345 67.2995 143.855C67.2995 144.325 67.1645 144.735 66.8945 145.085C66.6245 145.425 66.2695 145.69 65.8295 145.88C65.3995 146.06 64.9395 146.15 64.4495 146.15C63.8195 146.15 63.2345 146.04 62.6945 145.82C62.1645 145.6 61.7145 145.25 61.3445 144.77ZM75.8429 141.77C75.8329 141.95 75.7579 142.105 75.6179 142.235C75.4779 142.355 75.3129 142.415 75.1229 142.415H69.8429C69.9129 143.145 70.1879 143.73 70.6679 144.17C71.1579 144.61 71.7529 144.83 72.4529 144.83C72.9329 144.83 73.3229 144.76 73.6229 144.62C73.9229 144.48 74.1879 144.3 74.4179 144.08C74.5679 143.99 74.7129 143.945 74.8529 143.945C75.0229 143.945 75.1629 144.005 75.2729 144.125C75.3929 144.245 75.4529 144.385 75.4529 144.545C75.4529 144.755 75.3529 144.945 75.1529 145.115C74.8629 145.405 74.4779 145.65 73.9979 145.85C73.5179 146.05 73.0279 146.15 72.5279 146.15C71.7179 146.15 71.0029 145.98 70.3829 145.64C69.7729 145.3 69.2979 144.825 68.9579 144.215C68.6279 143.605 68.4629 142.915 68.4629 142.145C68.4629 141.305 68.6329 140.57 68.9729 139.94C69.3229 139.3 69.7779 138.81 70.3379 138.47C70.9079 138.13 71.5179 137.96 72.1679 137.96C72.8079 137.96 73.4079 138.125 73.9679 138.455C74.5279 138.785 74.9779 139.24 75.3179 139.82C75.6579 140.4 75.8329 141.05 75.8429 141.77ZM72.1679 139.28C71.6079 139.28 71.1229 139.44 70.7129 139.76C70.3029 140.07 70.0329 140.555 69.9029 141.215H74.3279V141.095C74.2779 140.565 74.0379 140.13 73.6079 139.79C73.1879 139.45 72.7079 139.28 72.1679 139.28ZM86.5126 138.005C88.2626 138.005 89.1376 139.095 89.1376 141.275V145.28C89.1376 145.49 89.0726 145.665 88.9426 145.805C88.8126 145.935 88.6426 146 88.4326 146C88.2226 146 88.0476 145.93 87.9076 145.79C87.7776 145.65 87.7126 145.48 87.7126 145.28V141.29C87.7126 139.98 87.1626 139.325 86.0626 139.325C85.6726 139.325 85.3176 139.415 84.9976 139.595C84.6876 139.765 84.4426 140 84.2626 140.3C84.0926 140.6 84.0076 140.93 84.0076 141.29V145.28C84.0076 145.48 83.9376 145.65 83.7976 145.79C83.6676 145.93 83.4976 146 83.2876 146C83.0776 146 82.9076 145.935 82.7776 145.805C82.6476 145.665 82.5826 145.49 82.5826 145.28V141.275C82.5826 140.685 82.4576 140.215 82.2076 139.865C81.9576 139.505 81.5426 139.325 80.9626 139.325C80.3726 139.325 79.8826 139.515 79.4926 139.895C79.1126 140.265 78.9226 140.725 78.9226 141.275V145.28C78.9226 145.48 78.8526 145.65 78.7126 145.79C78.5826 145.93 78.4126 146 78.2026 146C77.9926 146 77.8226 145.935 77.6926 145.805C77.5626 145.665 77.4976 145.49 77.4976 145.28V138.86C77.4976 138.66 77.5626 138.49 77.6926 138.35C77.8326 138.21 78.0026 138.14 78.2026 138.14C78.4126 138.14 78.5826 138.21 78.7126 138.35C78.8526 138.49 78.9226 138.66 78.9226 138.86V139.385C79.1826 138.995 79.5276 138.67 79.9576 138.41C80.3976 138.14 80.8726 138.005 81.3826 138.005C82.6226 138.005 83.4276 138.555 83.7976 139.655C84.0176 139.235 84.3826 138.855 84.8926 138.515C85.4026 138.175 85.9426 138.005 86.5126 138.005ZM97.0923 145.265C97.0923 145.475 97.0173 145.65 96.8673 145.79C96.7173 145.93 96.5423 146 96.3423 146C96.1223 146 95.9423 145.93 95.8023 145.79C95.6723 145.65 95.6073 145.475 95.6073 145.265V136.22C95.6073 136.02 95.6773 135.85 95.8173 135.71C95.9573 135.57 96.1373 135.5 96.3573 135.5C96.5573 135.5 96.7273 135.57 96.8673 135.71C97.0173 135.85 97.0923 136.02 97.0923 136.22V145.265ZM108.412 138.005C110.162 138.005 111.037 139.095 111.037 141.275V145.28C111.037 145.49 110.972 145.665 110.842 145.805C110.712 145.935 110.542 146 110.332 146C110.122 146 109.947 145.93 109.807 145.79C109.677 145.65 109.612 145.48 109.612 145.28V141.29C109.612 139.98 109.062 139.325 107.962 139.325C107.572 139.325 107.217 139.415 106.897 139.595C106.587 139.765 106.342 140 106.162 140.3C105.992 140.6 105.907 140.93 105.907 141.29V145.28C105.907 145.48 105.837 145.65 105.697 145.79C105.567 145.93 105.397 146 105.187 146C104.977 146 104.807 145.935 104.677 145.805C104.547 145.665 104.482 145.49 104.482 145.28V141.275C104.482 140.685 104.357 140.215 104.107 139.865C103.857 139.505 103.442 139.325 102.862 139.325C102.272 139.325 101.782 139.515 101.392 139.895C101.012 140.265 100.822 140.725 100.822 141.275V145.28C100.822 145.48 100.752 145.65 100.612 145.79C100.482 145.93 100.312 146 100.102 146C99.892 146 99.722 145.935 99.592 145.805C99.462 145.665 99.397 145.49 99.397 145.28V138.86C99.397 138.66 99.462 138.49 99.592 138.35C99.732 138.21 99.902 138.14 100.102 138.14C100.312 138.14 100.482 138.21 100.612 138.35C100.752 138.49 100.822 138.66 100.822 138.86V139.385C101.082 138.995 101.427 138.67 101.857 138.41C102.297 138.14 102.772 138.005 103.282 138.005C104.522 138.005 105.327 138.555 105.697 139.655C105.917 139.235 106.282 138.855 106.792 138.515C107.302 138.175 107.842 138.005 108.412 138.005ZM119.542 138.035C119.752 138.035 119.922 138.105 120.052 138.245C120.192 138.375 120.262 138.55 120.262 138.77V145.28C120.262 145.48 120.192 145.65 120.052 145.79C119.922 145.93 119.752 146 119.542 146C119.332 146 119.162 145.935 119.032 145.805C118.902 145.665 118.837 145.49 118.837 145.28V144.89C118.577 145.24 118.222 145.54 117.772 145.79C117.322 146.03 116.837 146.15 116.317 146.15C115.637 146.15 115.017 145.975 114.457 145.625C113.907 145.275 113.472 144.79 113.152 144.17C112.842 143.54 112.687 142.835 112.687 142.055C112.687 141.275 112.842 140.575 113.152 139.955C113.472 139.325 113.907 138.835 114.457 138.485C115.007 138.135 115.612 137.96 116.272 137.96C116.802 137.96 117.292 138.07 117.742 138.29C118.202 138.51 118.567 138.79 118.837 139.13V138.77C118.837 138.56 118.902 138.385 119.032 138.245C119.162 138.105 119.332 138.035 119.542 138.035ZM116.482 144.83C116.952 144.83 117.367 144.71 117.727 144.47C118.097 144.23 118.382 143.9 118.582 143.48C118.792 143.06 118.897 142.585 118.897 142.055C118.897 141.535 118.792 141.065 118.582 140.645C118.382 140.225 118.097 139.895 117.727 139.655C117.367 139.405 116.952 139.28 116.482 139.28C116.012 139.28 115.592 139.4 115.222 139.64C114.862 139.88 114.577 140.21 114.367 140.63C114.167 141.05 114.067 141.525 114.067 142.055C114.067 142.585 114.167 143.06 114.367 143.48C114.577 143.9 114.862 144.23 115.222 144.47C115.592 144.71 116.012 144.83 116.482 144.83ZM128.95 138.035C129.16 138.035 129.33 138.105 129.46 138.245C129.6 138.375 129.67 138.55 129.67 138.77V145.37C129.67 146.18 129.495 146.855 129.145 147.395C128.805 147.945 128.34 148.35 127.75 148.61C127.16 148.87 126.495 149 125.755 149C125.355 149 124.885 148.93 124.345 148.79C123.815 148.65 123.475 148.505 123.325 148.355C123.015 148.195 122.86 147.995 122.86 147.755C122.86 147.695 122.88 147.615 122.92 147.515C123.03 147.265 123.215 147.14 123.475 147.14C123.605 147.14 123.745 147.17 123.895 147.23C124.695 147.54 125.32 147.695 125.77 147.695C126.57 147.695 127.18 147.5 127.6 147.11C128.03 146.73 128.245 146.205 128.245 145.535V144.725C128.035 145.115 127.68 145.45 127.18 145.73C126.69 146.01 126.17 146.15 125.62 146.15C124.93 146.15 124.3 145.975 123.73 145.625C123.16 145.275 122.71 144.79 122.38 144.17C122.06 143.54 121.9 142.835 121.9 142.055C121.9 141.275 122.06 140.575 122.38 139.955C122.71 139.325 123.155 138.835 123.715 138.485C124.285 138.135 124.91 137.96 125.59 137.96C126.14 137.96 126.65 138.085 127.12 138.335C127.6 138.585 127.975 138.89 128.245 139.25V138.77C128.245 138.56 128.31 138.385 128.44 138.245C128.57 138.105 128.74 138.035 128.95 138.035ZM125.785 144.83C126.275 144.83 126.71 144.715 127.09 144.485C127.47 144.245 127.765 143.915 127.975 143.495C128.195 143.065 128.305 142.585 128.305 142.055C128.305 141.525 128.195 141.05 127.975 140.63C127.765 140.21 127.47 139.88 127.09 139.64C126.71 139.4 126.275 139.28 125.785 139.28C125.305 139.28 124.875 139.4 124.495 139.64C124.115 139.88 123.815 140.215 123.595 140.645C123.385 141.065 123.28 141.535 123.28 142.055C123.28 142.575 123.385 143.05 123.595 143.48C123.815 143.9 124.115 144.23 124.495 144.47C124.875 144.71 125.305 144.83 125.785 144.83ZM138.392 141.77C138.382 141.95 138.307 142.105 138.167 142.235C138.027 142.355 137.862 142.415 137.672 142.415H132.392C132.462 143.145 132.737 143.73 133.217 144.17C133.707 144.61 134.302 144.83 135.002 144.83C135.482 144.83 135.872 144.76 136.172 144.62C136.472 144.48 136.737 144.3 136.967 144.08C137.117 143.99 137.262 143.945 137.402 143.945C137.572 143.945 137.712 144.005 137.822 144.125C137.942 144.245 138.002 144.385 138.002 144.545C138.002 144.755 137.902 144.945 137.702 145.115C137.412 145.405 137.027 145.65 136.547 145.85C136.067 146.05 135.577 146.15 135.077 146.15C134.267 146.15 133.552 145.98 132.932 145.64C132.322 145.3 131.847 144.825 131.507 144.215C131.177 143.605 131.012 142.915 131.012 142.145C131.012 141.305 131.182 140.57 131.522 139.94C131.872 139.3 132.327 138.81 132.887 138.47C133.457 138.13 134.067 137.96 134.717 137.96C135.357 137.96 135.957 138.125 136.517 138.455C137.077 138.785 137.527 139.24 137.867 139.82C138.207 140.4 138.382 141.05 138.392 141.77ZM134.717 139.28C134.157 139.28 133.672 139.44 133.262 139.76C132.852 140.07 132.582 140.555 132.452 141.215H136.877V141.095C136.827 140.565 136.587 140.13 136.157 139.79C135.737 139.45 135.257 139.28 134.717 139.28ZM149.061 138.005C150.811 138.005 151.686 139.095 151.686 141.275V145.28C151.686 145.49 151.621 145.665 151.491 145.805C151.361 145.935 151.191 146 150.981 146C150.771 146 150.596 145.93 150.456 145.79C150.326 145.65 150.261 145.48 150.261 145.28V141.29C150.261 139.98 149.711 139.325 148.611 139.325C148.221 139.325 147.866 139.415 147.546 139.595C147.236 139.765 146.991 140 146.811 140.3C146.641 140.6 146.556 140.93 146.556 141.29V145.28C146.556 145.48 146.486 145.65 146.346 145.79C146.216 145.93 146.046 146 145.836 146C145.626 146 145.456 145.935 145.326 145.805C145.196 145.665 145.131 145.49 145.131 145.28V141.275C145.131 140.685 145.006 140.215 144.756 139.865C144.506 139.505 144.091 139.325 143.511 139.325C142.921 139.325 142.431 139.515 142.041 139.895C141.661 140.265 141.471 140.725 141.471 141.275V145.28C141.471 145.48 141.401 145.65 141.261 145.79C141.131 145.93 140.961 146 140.751 146C140.541 146 140.371 145.935 140.241 145.805C140.111 145.665 140.046 145.49 140.046 145.28V138.86C140.046 138.66 140.111 138.49 140.241 138.35C140.381 138.21 140.551 138.14 140.751 138.14C140.961 138.14 141.131 138.21 141.261 138.35C141.401 138.49 141.471 138.66 141.471 138.86V139.385C141.731 138.995 142.076 138.67 142.506 138.41C142.946 138.14 143.421 138.005 143.931 138.005C145.171 138.005 145.976 138.555 146.346 139.655C146.566 139.235 146.931 138.855 147.441 138.515C147.951 138.175 148.491 138.005 149.061 138.005ZM154.506 142.85C154.226 142.85 154.076 142.69 154.056 142.37L153.726 136.4C153.706 136.14 153.766 135.925 153.906 135.755C154.056 135.585 154.251 135.5 154.491 135.5C154.741 135.5 154.936 135.585 155.076 135.755C155.216 135.925 155.276 136.14 155.256 136.4L154.941 142.37C154.931 142.53 154.886 142.65 154.806 142.73C154.736 142.81 154.636 142.85 154.506 142.85ZM154.416 146C154.176 146 153.991 145.935 153.861 145.805C153.741 145.665 153.681 145.475 153.681 145.235V144.95C153.681 144.71 153.741 144.525 153.861 144.395C153.991 144.255 154.176 144.185 154.416 144.185H154.581C154.821 144.185 155.001 144.255 155.121 144.395C155.251 144.525 155.316 144.71 155.316 144.95V145.235C155.316 145.475 155.251 145.665 155.121 145.805C155.001 145.935 154.821 146 154.581 146H154.416Z" fill="#959595"/>
</svg>
